<?xml version="1.0" encoding="utf-8"?>
<!-- Generator: Adobe Illustrator 17.0.0, SVG Export Plug-In . SVG Version: 6.00 Build 0)  -->
<!DOCTYPE svg PUBLIC "-//W3C//DTD SVG 1.1//EN" "http://www.w3.org/Graphics/SVG/1.1/DTD/svg11.dtd">
<svg version="1.1" id="Ebene_1" xmlns="http://www.w3.org/2000/svg" xmlns:xlink="http://www.w3.org/1999/xlink" x="0px" y="0px"
	 width="126px" height="60px" viewBox="0 0 126 60" enable-background="new 0 0 126 60" xml:space="preserve">
<g>
	<path fill="#0073BC" d="M120.813,4.703h1.003V2.07h0.019l0.993,2.633h0.688l0.993-2.633h0.019v2.633h1.001V0.657h-1.394
		l-0.963,2.631l-0.962-2.631h-1.396V4.703z M117.838,4.703h1.003V1.541h1.198V0.657h-3.398v0.884h1.198V4.703z M109.449,23.527
		c0,10.562-7.553,13.904-15.708,13.904h-5.413V9.758h5.682C101.896,9.758,109.449,12.9,109.449,23.527 M121.349,23.527
		C121.349,5.614,107.712,0,94.277,0H77.166v47.325h17.645C107.845,47.325,121.349,40.173,121.349,23.527 M64.727,30.547
		c0,4.276-2.742,8.623-7.889,8.623c-5.146,0-7.886-4.346-7.886-8.623c0-4.279,2.673-8.49,7.821-8.49
		C61.918,22.057,64.727,26.268,64.727,30.547 M75.287,30.547c0-10.897-8.422-17.58-18.515-17.58
		c-10.027,0-18.448,6.683-18.448,17.58c0,10.894,8.422,17.846,18.448,17.846C66.865,48.393,75.287,41.441,75.287,30.547
		 M25.938,32.485c0,4.613-4.412,5.615-8.02,5.615H11.5V27.272h6.35C22.729,27.272,25.938,28.54,25.938,32.485 M24.4,13.702
		c0,3.342-2.473,5.147-6.752,5.147H11.5V9.09h5.615C21.927,9.09,24.4,10.493,24.4,13.702 M37.369,33.555
		c0-6.218-4.279-10.095-9.692-11.03v-0.134c4.61-1.537,7.753-5.012,7.753-10.226C35.43,2.606,26.674,0,19.32,0H0.472v47.325H19.32
		C28.345,47.325,37.369,43.847,37.369,33.555"/>
	<path fill="#1D1D1B" d="M113.68,58.523v-5.649h1.21c1.499,0,3.183,0.496,3.183,2.837c0,2.203-1.684,2.813-3.183,2.813H113.68z
		 M112.226,59.791h2.893c2.134,0,4.51-1.223,4.51-4.081c0-3.068-2.377-4.082-4.51-4.082h-2.893V59.791z M102.771,59.791h1.453
		v-6.307h0.024l3.872,6.307h1.846v-8.163h-1.451v6.113h-0.026l-3.791-6.113h-1.927V59.791z M95.986,56.679l1.282-3.323l1.256,3.323
		H95.986z M93.127,59.791h1.625l0.738-1.866h3.541l0.762,1.866h1.66l-3.516-8.163h-1.258L93.127,59.791z M82.994,59.791h1.384
		v-6.561h0.024l2.444,6.561h1.015l2.478-6.561h0.024v6.561h1.439v-8.163h-2.282l-2.097,5.801h-0.036l-2.122-5.801h-2.271V59.791z
		 M75.518,59.791h5.615v-1.292h-4.16v-2.302h3.745v-1.223h-3.745v-2.075h3.953v-1.27h-5.408V59.791z M67.755,58.523v-5.649h1.211
		c1.499,0,3.183,0.496,3.183,2.837c0,2.203-1.684,2.813-3.183,2.813H67.755z M66.302,59.791h2.895c2.134,0,4.508-1.223,4.508-4.081
		c0-3.068-2.375-4.082-4.508-4.082h-2.895V59.791z M55.431,59.791h1.382v-3.043c0-0.737,0.415-1.499,1.292-1.499
		c0.887,0,1.037,0.82,1.037,1.475v3.068h1.384v-3.459c0-1.129-0.6-2.239-2.041-2.239c-0.818,0-1.477,0.496-1.718,1.051h-0.024
		v-0.887h-1.313V59.791z M49.074,57.003c0-0.865,0.507-1.777,1.603-1.777c1.094,0,1.603,0.912,1.603,1.777
		c0,0.863-0.508,1.796-1.603,1.796C49.58,58.799,49.074,57.866,49.074,57.003 M47.666,57.003c0,1.739,1.337,2.95,3.011,2.95
		c1.672,0,3.009-1.211,3.009-2.95c0-1.744-1.337-2.909-3.009-2.909C49.003,54.094,47.666,55.259,47.666,57.003 M42.454,52.298
		c-0.62-0.589-1.556-0.875-2.375-0.875c-1.475,0-2.987,0.738-2.987,2.397c0,1.522,1.074,2.004,2.065,2.318
		c1.025,0.322,1.88,0.564,1.88,1.417c0,0.875-0.796,1.213-1.477,1.213c-0.644,0-1.384-0.348-1.787-0.901l-1.037,0.968
		C37.383,59.595,38.477,60,39.537,60c1.604,0,2.976-0.853,2.976-2.607c0-1.601-1.337-2.065-2.387-2.385
		c-0.922-0.29-1.556-0.508-1.556-1.258c0-0.794,0.772-1.117,1.441-1.117c0.577,0,1.187,0.298,1.499,0.703L42.454,52.298z
		 M28.933,59.791h1.453V55.7h0.034l3.586,4.091h2.04L31.978,55.4l3.815-3.772h-1.96l-3.414,3.528h-0.034v-3.528h-1.453V59.791z
		 M19.899,55.687c0-1.682,1.12-2.985,2.804-2.985c1.692,0,2.812,1.303,2.812,2.985c0,1.742-1.142,3.009-2.812,3.009
		C21.042,58.695,19.899,57.429,19.899,55.687 M18.321,55.687c0,2.549,1.856,4.313,4.37,4.313c2.547,0,4.403-1.765,4.403-4.313
		c0-2.616-1.856-4.264-4.403-4.264C20.177,51.423,18.321,53.07,18.321,55.687 M9.707,55.687c0-1.682,1.118-2.985,2.802-2.985
		c1.694,0,2.813,1.303,2.813,2.985c0,1.742-1.141,3.009-2.813,3.009C10.848,58.695,9.707,57.429,9.707,55.687 M8.127,55.687
		c0,2.549,1.858,4.313,4.37,4.313c2.547,0,4.405-1.765,4.405-4.313c0-2.616-1.858-4.264-4.405-4.264
		C9.985,51.423,8.127,53.07,8.127,55.687 M2.159,56.197H3.52c1.177,0,1.765,0.296,1.765,1.151c0,1.072-1.074,1.22-1.822,1.22H2.159
		V56.197z M2.159,52.829h1.165c1.096,0,1.615,0.286,1.615,1.013c0,0.703-0.519,1.106-1.487,1.106H2.159V52.829z M0.706,59.791h2.94
		c1.546,0,3.09-0.6,3.09-2.375c0-1.096-0.737-1.789-1.765-1.927v-0.021c0.843-0.255,1.42-0.865,1.42-1.789
		c0-1.487-1.27-2.052-2.502-2.052H0.706V59.791z"/>
</g>
</svg>
